# AST/ASF file generated using VICON BodyLanguage
# -----------------------------------------------
:version 1.10
:name VICON
:units
  mass 1.0
  length 0.45
  angle deg
:documentation
   .ast/.asf automatically generated from VICON data using
   VICON BodyBuilder and BodyLanguage model FoxedUp or BRILLIANT.MOD
:root
   order TX TY TZ RX RY RZ
   axis XYZ
   position 0 0 0  
   orientation 0 0 0 
:bonedata
  begin
     id 1 
     name lhipjoint
     direction 0.693937 -0.600361 0.397515 
     length 2.37164 
     axis 0 0 0  XYZ
  end
  begin
     id 2 
     name lfemur
     direction 0.34202 -0.939693 0  
     length 6.18497  
     axis 0 0 20  XYZ
    dof rx ry rz
    limits (-160.0 20.0)
           (-70.0 70.0)
           (-60.0 70.0)
  end
  begin
     id 3 
     name ltibia
     direction 0.34202 -0.939693 0   
     length 6.91601   
     axis 0 0 20   XYZ
    dof rx
    limits (-10.0 170.0)
  end
  begin
     id 4 
     name lfoot
     direction 0.0978718 -0.2689 0.958182   
     length 1.81453   
     axis -90 7.62852e-016 20   XYZ
    dof rx rz
    limits (-45.0 90.0)
           (-70.0 20.0)
  end
  begin
     id 5 
     name ltoes
     direction 1.53569e-011 -4.21951e-011 1   
     length 0.912052   
     axis -90 7.62852e-016 20   XYZ
    dof rx
    limits (-90.0 20.0)
  end
  begin
     id 6 
     name rhipjoint
     direction -0.643996 -0.637876 0.422354   
     length 2.23216  
     axis 0 0 0  XYZ 
  end
  begin
     id 7 
     name rfemur
     direction -0.34202 -0.939693 0   
     length 6.15404   
     axis 0 0 -20   XYZ
    dof rx ry rz
    limits (-160.0 20.0)
           (-70.0 70.0)
           (-70.0 60.0)
  end
  begin
     id 8 
     name rtibia
     direction -0.34202 -0.939693 0   
     length 6.86744   
     axis 0 0 -20   XYZ
    dof rx
    limits (-10.0 170.0)
 end
 begin
     id 9 
     name rfoot
     direction -0.118701 -0.326127 0.937844   
     length 1.9243  
     axis -90 -7.62852e-016 -20   XYZ
    dof rx rz
    limits (-45.0 90.0)
           (-20.0 70.0)
  end
  begin
     id 10 
     name rtoes
     direction -1.5356e-011 -4.2181e-011 1   
     length 0.958865   
     axis -90 -7.62852e-016 -20   XYZ
    dof rx
    limits (-90.0 20.0)
  end
  begin
     id 11 
     name lowerback
     direction 0.0310826 0.968686 -0.246334   
     length 2.00021   
     axis 0 0 0   XYZ
    dof rx ry rz
    limits (-20.0 45.0)
           (-30.0 30.0)
           (-30.0 30.0)
  end
  begin
     id 12 
     name upperback
     direction -0.0152834 0.999474 -0.0286152   
     length 2.03728   
     axis 0 0 0   XYZ
    dof rx ry rz
    limits (-20.0 45.0)
           (-30.0 30.0)
           (-30.0 30.0)
  end
  begin
     id 13 
     name thorax
     direction -0.0323701 0.996236 0.0804149   
     length 2.16   
     axis 0 0 0   XYZ
    dof rx ry rz
    limits (-20.0 45.0)
           (-30.0 30.0)
           (-30.0 30.0)
  end
  begin
     id 14 
     name lowerneck
     direction 0.0307935 0.982251 0.185027   
     length 1.43558   
     axis 0 0 0   XYZ
    dof rx ry rz
    limits (-20.0 45.0)
           (-30.0 30.0)
           (-30.0 30.0)
  end
  begin
     id 15 
     name upperneck
     direction -0.0927153 0.994775 0.0427454   
     length 1.44603   
     axis 0 0 0   XYZ
    dof rx ry rz
    limits (-20.0 45.0)
           (-30.0 30.0)
           (-30.0 30.0)
  end
  begin
     id 16
     name head
     direction -0.0341265 0.999406 -0.00472033  
     length 1.45931  
     axis 0 0 0   XYZ
    dof rx ry rz
    limits (-20.0 45.0)
           (-30.0 30.0)
           (-30.0 30.0)
  end
  begin
     id 17 
     name lclavicle
     direction 0.820755 0.555306 -0.134151  
     length 2.66075  
     axis 0 0 0   XYZ
    dof ry rz
    limits (-20.0 10.0)
           (0.0 20.0)
  end
  begin
     id 18 
     name lhumerus
     direction 1 -4.48971e-011 5.24853e-027   
     length 5.0546   
     axis -180 -30 -90   XYZ
    dof rx ry rz
    limits (-60.0 90.0)
           (-90.0 90.0)
           (-90.0 90.0)
  end
  begin
     id 19
     name lradius
     direction 1 -4.48971e-011 2.76575e-028   
     length 3.39013   
     axis -180 -30 -90   XYZ
    dof rx
    limits (-10.0 170.0)
  end
  begin
     id 20
     name lwrist
     direction 1 -4.48939e-011 -2.27826e-027   
     length 1.69507   
     axis 2.17013e-015 90 90   XYZ
    dof ry
    limits (-180.0 0.0)
 end
  begin
     id 21 
     name lhand
     direction 1 -4.49009e-011 -4.55652e-027   
     length 0.572425   
     axis 2.90745e-015 90 90   XYZ
    dof rx rz
    limits (-90.0 90.0)
           (-45.0 45.0)
  end
  begin
     id 22 
     name lfingers
     direction 1 -4.48955e-011 -9.11303e-027   
     length 0.461504   
     axis 5.81489e-015 90 90   XYZ
    dof rx
    limits (0.0 90.0)
  end
  begin
     id 23
     name lthumb
     direction 0.707107 -6.34929e-011 0.707107   
     length 0.66263   
     axis -90 45 2.85299e-015   XYZ
    dof rx rz
    limits (-45.0 45.0)
           (-45.0 45.0)
  end
  begin
     id 24 
     name rclavicle
     direction -0.754477 0.632921 -0.173712   
     length 2.73081  
     axis 0 0 0   XYZ 
    dof ry rz
    limits (-10.0 20.0)
           (-20.0 0.0)
  end
  begin
     id 25 
     name rhumerus
     direction -1 -4.48969e-011 5.1496e-027  
     length 5.0701   
     axis -180 30 90   XYZ
    dof rx ry rz
    limits (-90.0 60.0)
           (-90.0 90.0)
           (-90.0 90.0)
  end
  begin
     id 26 
     name rradius
     direction -1 -4.48967e-011 -7.15624e-028   
     length 3.14957   
     axis -180 30 90   XYZ
    dof rx
    limits (-10.0 170.0)
  end
  begin
     id 27 
     name rwrist
     direction -1 -4.48938e-011 -2.27826e-027   
     length 1.57479   
     axis 2.17013e-015 -90 -90   XYZ
    dof ry
    limits (-180.0 0.0)
  end
  begin
     id 28
     name rhand
     direction -1 -4.49008e-011 -4.55652e-027   
     length 0.718191   
     axis 2.90745e-015 -90 -90   XYZ
    dof rx rz
    limits (-90.0 90.0)
           (-45.0 45.0)
  end
  begin
     id 29
     name rfingers
     direction -1 -4.48953e-011 -9.11303e-027   
     length 0.579024   
     axis 5.81489e-015 -90 -90   XYZ
    dof rx
    limits (0.0 90.0)
  end
  begin
     id 30
     name rthumb
     direction -0.707107 -6.34937e-011 0.707107   
     length 0.831366   
     axis -90 -45 -2.85299e-015   XYZ
    dof rx rz
    limits (-45.0 45.0)
           (-45.0 45.0)
  end
:hierarchy
  begin
    root lhipjoint rhipjoint lowerback
    lhipjoint lfemur
    lfemur ltibia
    ltibia lfoot
    lfoot ltoes
    rhipjoint rfemur
    rfemur rtibia
    rtibia rfoot
    rfoot rtoes
    lowerback upperback
    upperback thorax
    thorax lowerneck lclavicle rclavicle
    lowerneck upperneck
    upperneck head
    lclavicle lhumerus
    lhumerus lradius
    lradius lwrist
    lwrist lhand lthumb
    lhand lfingers
    rclavicle rhumerus
    rhumerus rradius
    rradius rwrist
    rwrist rhand rthumb
    rhand rfingers
  end

#!OML:ASF H:\Male1\Project 1\Capture day 1\Session 1\Male1.ASF
:FULLY-SPECIFIED
:DEGREES
102
root 21.6633 15.2564 1.6734 180.219 -85.8662 -182.244
lowerback 8.39864 2.54774 -4.50174
upperback 2.90118 2.84452 -2.112
thorax -1.80959 1.36063 0.0621478
lowerneck -9.24861 3.33245 7.37555
upperneck 14.9201 3.49312 -1.54795
head 6.2203 1.93444 -1.42008
rclavicle -2.96189e-014 2.46493e-014
rhumerus -32.7649 7.97843 -92.5819
rradius 35.2091
rwrist -17.0037
rhand -15.8302 0.378347
rfingers 7.12502
rthumb 10.364 -29.3462
lclavicle -2.96189e-014 2.46493e-014
lhumerus -35.9744 -18.1936 90.4263
lradius 34.2975
lwrist 6.41569
lhand -15.9232 14.1551
lfingers 7.12502
lthumb 10.2742 43.8842
rfemur -18.2421 2.25074 19.1749
rtibia 45.2547
rfoot -25.2026 -26.5561
rtoes -19.6987
lfemur -1.41166 -15.4886 -30.0522
ltibia 25.0126
lfoot -30.3227 26.0389
ltoes 9.03504
103
root 21.6029 15.2612 1.6937 185.419 -86.2125 -187.379
lowerback 8.29177 2.45526 -4.82491
upperback 2.9855 2.69999 -2.19063
thorax -1.66855 1.28276 0.182221
lowerneck -9.20369 3.36149 7.43537
upperneck 14.8834 3.53724 -1.60996
head 6.20519 1.95418 -1.44645
rclavicle 4.11484e-014 -2.70347e-014
rhumerus -32.6851 7.71014 -92.4226
rradius 35.2283
rwrist -16.8143
rhand -15.794 0.543337
rfingers 7.12502
rthumb 10.3989 -29.1795
lclavicle 4.11484e-014 -2.70347e-014
lhumerus -35.7359 -18.7476 90.5747
lradius 33.4905
lwrist 6.81633
lhand -14.8285 16.2349
lfingers 7.12502
lthumb 11.3302 45.9088
rfemur -19.5565 1.92894 19.1378
rtibia 46.6729
rfoot -23.9049 -25.5739
rtoes -22.1928
lfemur -0.875372 -15.5939 -30.5532
ltibia 24.289
lfoot -29.8902 26.1647
ltoes 8.39277
104
root 21.5368 15.2663 1.71245 188.314 -86.6182 -190.253
lowerback 8.2903 2.34341 -4.99811
upperback 3.05292 2.53997 -2.16022
thorax -1.60001 1.19962 0.327778
lowerneck -9.00949 3.22096 7.1772
upperneck 14.864 3.37285 -1.44514
head 6.14985 1.87207 -1.36909
rclavicle 2.08724e-015 -2.14687e-014
rhumerus -32.7654 7.6908 -92.2676
rradius 35.2405
rwrist -16.8814
rhand -15.6926 0.453039
rfingers 7.12502
rthumb 10.4967 -29.2649
lclavicle 2.08724e-015 -2.14687e-014
lhumerus -35.3412 -18.7188 90.5478
lradius 32.7528
lwrist 7.34385
lhand -13.4368 14.9434
lfingers 7.12502
lthumb 12.6721 44.539
rfemur -20.7089 1.80941 19.39
rtibia 47.7099
rfoot -22.6642 -24.5188
rtoes -24.1604
lfemur -0.289536 -15.7864 -30.8481
ltibia 23.6023
lfoot -29.5303 26.347
ltoes 8.05901
105
root 21.4667 15.2738 1.7306 190.332 -87.1174 -192.288
lowerback 8.37623 2.20352 -5.11275
upperback 3.12482 2.34368 -2.06936
thorax -1.57251 1.09934 0.503582
lowerneck -9.32727 3.41384 7.47874
upperneck 15.0737 3.60754 -1.72329
head 6.29301 1.98357 -1.48142
rclavicle -4.37326e-015 -2.22639e-014
rhumerus -32.9128 7.72499 -92.0911
rradius 35.2534
rwrist -17.0463
rhand -15.469 0.415323
rfingers 7.12502
rthumb 10.7124 -29.2916
lclavicle -4.37326e-015 -2.22639e-014
lhumerus -34.7227 -18.2713 90.3507
lradius 32.0269
lwrist 7.80636
lhand -11.3645 18.3982
lfingers 7.12502
lthumb 14.6693 47.8593
rfemur -21.6712 1.73666 19.8024
rtibia 48.3474
rfoot -21.7675 -23.3276
rtoes -25.2762
lfemur 0.343013 -16.0403 -31.0465
ltibia 22.9902
lfoot -29.3515 26.3487
ltoes 8.15614
106
root 21.3928 15.2824 1.74755 193.951 -87.5794 -195.883
lowerback 8.44456 2.091 -5.2859
upperback 3.19209 2.17917 -1.99232
thorax -1.54163 1.01433 0.695215
lowerneck -9.32906 3.3058 7.41726
upperneck 15.0865 3.46066 -1.66885
head 6.28821 1.91317 -1.46682
rclavicle -3.65764e-014 4.45278e-014
rhumerus -33.0412 7.55353 -91.8709
rradius 35.196
rwrist -17.0397
rhand -15.4353 0.632182
rfingers 7.12502
rthumb 10.7449 -29.073
lclavicle -3.65764e-014 4.45278e-014
lhumerus -33.9666 -17.4073 89.9482
lradius 31.357
lwrist 7.48149
lhand -11.0814 16.6932
lfingers 7.12502
lthumb 14.9421 46.1342
rfemur -22.6193 1.80757 20.2172
rtibia 48.6251
rfoot -21.1235 -22.4048
rtoes -26.0508
lfemur 0.934592 -16.1683 -31.254
ltibia 22.455
lfoot -29.1879 26.2739
ltoes 7.85044
